<svg version="1.1" xmlns="http://www.w3.org/2000/svg" xmlns:xlink="http://www.w3.org/1999/xlink" width="512px" height="512px" viewBox="0,0,256,256"><g fill="#ffffff" fill-rule="nonzero" stroke="none" stroke-width="1" stroke-linecap="butt" stroke-linejoin="miter" stroke-miterlimit="10" stroke-dasharray="" stroke-dashoffset="0" font-family="none" font-weight="none" font-size="none" text-anchor="none" style="mix-blend-mode: normal"><g transform="translate(0.00717,-0.02462) scale(0.5,0.5)"><path d="M498.1,5.6c10.1,7 15.4,19.1 13.5,31.2l-64,416c-1.5,9.7 -7.4,18.2 -16,23c-8.6,4.8 -18.9,5.4 -28,1.6l-119.6,-49.7l-68.5,74.1c-8.9,9.7 -22.9,12.9 -35.2,8.1c-12.3,-4.8 -20.3,-16.7 -20.3,-29.9v-83.6c0,-4 1.5,-7.8 4.2,-10.7l167.6,-182.9c5.8,-6.3 5.6,-16 -0.4,-22c-6,-6 -15.7,-6.4 -22,-0.7l-203.4,180.7l-88.3,-44.2c-10.6,-5.3 -17.4,-15.9 -17.7,-27.7c-0.3,-11.8 5.9,-22.8 16.1,-28.7l448,-256c10.7,-6.1 23.9,-5.5 34,1.4z"></path></g></g></svg>